<svg width="20" height="21" viewBox="0 0 20 21" fill="none" xmlns="http://www.w3.org/2000/svg">
<path d="M18.3333 6.98568C18.3333 7.53568 17.8833 7.98568 17.3333 7.98568H2.66666C2.11666 7.98568 1.66666 7.53568 1.66666 6.98568V6.97734C1.66666 5.06901 3.20833 3.52734 5.11666 3.52734H14.875C16.7833 3.52734 18.3333 5.07734 18.3333 6.98568Z" fill="white"/>
<path d="M1.66666 10.2344V14.4094C1.66666 16.3177 3.20833 17.8594 5.11666 17.8594H14.875C16.7833 17.8594 18.3333 16.3094 18.3333 14.401V10.2344C18.3333 9.68437 17.8833 9.23438 17.3333 9.23438H2.66666C2.11666 9.23437 1.66666 9.68437 1.66666 10.2344ZM6.66666 15.0677H5C4.65833 15.0677 4.375 14.7844 4.375 14.4427C4.375 14.101 4.65833 13.8177 5 13.8177H6.66666C7.00833 13.8177 7.29166 14.101 7.29166 14.4427C7.29166 14.7844 7.00833 15.0677 6.66666 15.0677ZM12.0833 15.0677H8.75C8.40833 15.0677 8.125 14.7844 8.125 14.4427C8.125 14.101 8.40833 13.8177 8.75 13.8177H12.0833C12.425 13.8177 12.7083 14.101 12.7083 14.4427C12.7083 14.7844 12.425 15.0677 12.0833 15.0677Z" fill="white"/>
</svg>
