<svg width="20" height="21" viewBox="0 0 20 21" fill="none" xmlns="http://www.w3.org/2000/svg">
<path d="M18.3333 4.98633V8.06966C18.3333 9.94466 17.5833 10.6947 15.7083 10.6947H13.4583C11.5833 10.6947 10.8333 9.94466 10.8333 8.06966V4.98633C10.8333 3.11133 11.5833 2.36133 13.4583 2.36133H15.7083C17.5833 2.36133 18.3333 3.11133 18.3333 4.98633Z" fill="white"/>
<path d="M9.16666 13.3193V16.4027C9.16666 18.2777 8.41666 19.0277 6.54166 19.0277H4.29166C2.41666 19.0277 1.66666 18.2777 1.66666 16.4027V13.3193C1.66666 11.4443 2.41666 10.6943 4.29166 10.6943H6.54166C8.41666 10.6943 9.16666 11.4443 9.16666 13.3193Z" fill="white"/>
<path d="M12.317 19.0279C12.092 19.0279 11.8837 18.9029 11.7754 18.7113C11.667 18.5113 11.667 18.2779 11.7837 18.0779L12.592 16.7279C12.767 16.4279 13.1504 16.3363 13.4504 16.5113C13.7504 16.6863 13.842 17.0696 13.667 17.3696L13.517 17.6196C15.5754 17.0863 17.092 15.2196 17.092 13.0029C17.092 12.6613 17.3754 12.3779 17.717 12.3779C18.0587 12.3779 18.3337 12.6613 18.3337 13.0113C18.3337 16.3279 15.6337 19.0279 12.317 19.0279Z" fill="white"/>
<path d="M2.29166 9.003C1.95 9.003 1.66666 8.72799 1.66666 8.378C1.66666 5.06133 4.36666 2.36133 7.68333 2.36133C7.91666 2.36133 8.11666 2.48633 8.23333 2.67799C8.34166 2.87799 8.34166 3.11133 8.225 3.31133L7.41666 4.65299C7.23333 4.95299 6.85 5.05299 6.55833 4.86966C6.25833 4.69466 6.16666 4.31133 6.34166 4.01133L6.49166 3.76133C4.44166 4.29466 2.91666 6.16133 2.91666 8.378C2.91666 8.72799 2.63333 9.003 2.29166 9.003Z" fill="white"/>
</svg>
