<svg width="20" height="21" viewBox="0 0 20 21" fill="none" xmlns="http://www.w3.org/2000/svg">
<path d="M18.3333 4.98633V8.06966C18.3333 9.94466 17.5833 10.6947 15.7083 10.6947H13.4583C11.5833 10.6947 10.8333 9.94466 10.8333 8.06966V4.98633C10.8333 3.11133 11.5833 2.36133 13.4583 2.36133H15.7083C17.5833 2.36133 18.3333 3.11133 18.3333 4.98633Z" stroke="white" stroke-linecap="round" stroke-linejoin="round"/>
<path d="M9.16666 13.3193V16.4027C9.16666 18.2777 8.41666 19.0277 6.54166 19.0277H4.29166C2.41666 19.0277 1.66666 18.2777 1.66666 16.4027V13.3193C1.66666 11.4443 2.41666 10.6943 4.29166 10.6943H6.54166C8.41666 10.6943 9.16666 11.4443 9.16666 13.3193Z" stroke="white" stroke-linecap="round" stroke-linejoin="round"/>
<path d="M18.3333 13.1943C18.3333 16.4193 15.725 19.0277 12.5 19.0277L13.375 17.5693" stroke="white" stroke-linecap="round" stroke-linejoin="round"/>
<path d="M1.66666 8.19466C1.66666 4.96966 4.275 2.36133 7.5 2.36133L6.625 3.81966" stroke="white" stroke-linecap="round" stroke-linejoin="round"/>
</svg>
