<svg width="140" height="39" viewBox="0 0 140 39" fill="none" xmlns="http://www.w3.org/2000/svg">
<path d="M41.9444 31.6908C41.7774 31.6908 41.6421 31.5555 41.6421 31.3885V17.1847C41.6421 17.0177 41.7774 16.8824 41.9444 16.8824H45.082C45.2489 16.8824 45.3843 17.0177 45.3843 17.1847V31.3885C45.3843 31.5555 45.2489 31.6908 45.082 31.6908H41.9444Z" fill="white"/>
<path d="M59.7552 31.6908C59.5882 31.6908 59.4529 31.5555 59.4529 31.3885V23.5114C59.4529 21.1325 58.1431 19.8494 56.1651 19.8494C54.1336 19.8494 52.8238 21.1325 52.8238 23.5114V31.3885C52.8238 31.5555 52.6885 31.6908 52.5215 31.6908H49.3839C49.2169 31.6908 49.0816 31.5555 49.0816 31.3885V17.1847C49.0816 17.0177 49.2169 16.8824 49.3839 16.8824H52.5215C52.6885 16.8824 52.8238 17.0177 52.8238 17.1847V17.8349C52.8238 18.1239 53.2136 18.2661 53.428 18.0725C54.3956 17.1988 55.7444 16.6685 57.2877 16.6685C60.7359 16.6685 63.1951 18.9139 63.1951 23.0036V31.3885C63.1951 31.5555 63.0597 31.6908 62.8928 31.6908H59.7552Z" fill="white"/>
<path d="M78.2477 27.4675C78.2477 30.0069 76.0291 31.9314 72.4205 31.9314C68.8499 31.9314 66.3161 29.9318 65.9816 27.3323C65.9594 27.1598 66.0984 27.0131 66.2722 27.0131H69.4523C69.6055 27.0131 69.732 27.1285 69.77 27.2769C70.024 28.267 71.0165 28.9911 72.3938 28.9911C73.8639 28.9911 74.6658 28.3229 74.6658 27.4675C74.6658 24.8212 66.2993 26.5052 66.2993 21.079C66.2993 18.6198 68.4912 16.6418 72.1532 16.6418C75.6019 16.6418 77.7372 18.4507 78.0821 21.2096C78.1039 21.3838 77.9645 21.5334 77.7889 21.5334H74.8077C74.6516 21.5334 74.5235 21.4136 74.4904 21.2611C74.274 20.2633 73.3971 19.6088 72.0463 19.6088C70.6563 19.6088 69.9346 20.1702 69.9346 21.0255C69.9346 23.7253 78.1408 22.0413 78.2477 27.4675Z" fill="white"/>
<path d="M87.3463 26.4649C87.4433 26.7276 87.8146 26.7284 87.9129 26.4661L91.4302 17.0786C91.4744 16.9606 91.5872 16.8824 91.7133 16.8824H95.0315C95.2476 16.8824 95.3939 17.1026 95.3102 17.3018L86.3959 38.509C86.3487 38.6212 86.2389 38.6941 86.1172 38.6941H82.7964C82.5787 38.6941 82.4323 38.4709 82.5191 38.2713L85.4919 31.4339C85.5245 31.3589 85.5254 31.274 85.4943 31.1984L79.7803 17.2996C79.6986 17.1007 79.8448 16.8824 80.0599 16.8824H83.5949C83.7214 16.8824 83.8346 16.9612 83.8784 17.0799L87.3463 26.4649Z" fill="white"/>
<path d="M98.0918 27.0933V20.2586C98.0918 20.0917 97.9565 19.9563 97.7895 19.9563H96.63C96.463 19.9563 96.3277 19.821 96.3277 19.654V17.1847C96.3277 17.0177 96.463 16.8824 96.63 16.8824H97.7895C97.9565 16.8824 98.0918 16.747 98.0918 16.5801V13.5226C98.0918 13.3557 98.2272 13.2203 98.3941 13.2203H101.558C101.725 13.2203 101.861 13.3557 101.861 13.5226V16.5801C101.861 16.747 101.996 16.8824 102.163 16.8824H104.873C105.04 16.8824 105.175 17.0177 105.175 17.1847V19.654C105.175 19.821 105.04 19.9563 104.873 19.9563H102.163C101.996 19.9563 101.861 20.0917 101.861 20.2586V27.12C101.861 28.109 102.262 28.5367 103.438 28.5367H104.873C105.04 28.5367 105.175 28.672 105.175 28.839V31.3885C105.175 31.5555 105.04 31.6908 104.873 31.6908H102.823C99.9897 31.6908 98.0918 30.488 98.0918 27.0933Z" fill="white"/>
<path d="M108.169 31.6908C108.002 31.6908 107.867 31.5555 107.867 31.3885V12.2129C107.867 12.0459 108.002 11.9106 108.169 11.9106H111.307C111.474 11.9106 111.609 12.0459 111.609 12.2129V17.8349C111.609 18.1239 112 18.2671 112.216 18.075C113.199 17.1998 114.597 16.6685 116.207 16.6685C119.548 16.6685 121.98 18.9139 121.98 23.0036V31.3885C121.98 31.5555 121.845 31.6908 121.678 31.6908H118.54C118.374 31.6908 118.238 31.5555 118.238 31.3885V23.5114C118.238 21.1325 116.928 19.8494 114.95 19.8494C112.919 19.8494 111.609 21.1325 111.609 23.5114V31.3885C111.609 31.5555 111.474 31.6908 111.307 31.6908H108.169Z" fill="white"/>
<path d="M124.577 24.2331C124.577 19.6088 127.571 16.6418 131.339 16.6418C133.247 16.6418 134.673 17.3634 135.618 18.2832C135.829 18.4881 136.231 18.3478 136.231 18.0541V17.1847C136.231 17.0177 136.366 16.8824 136.533 16.8824H139.698C139.865 16.8824 140 17.0177 140 17.1847V31.3885C140 31.5555 139.865 31.6908 139.698 31.6908H136.533C136.366 31.6908 136.231 31.5555 136.231 31.3885V30.499C136.231 30.2021 135.817 30.0611 135.606 30.2694C134.648 31.2133 133.194 31.9314 131.313 31.9314C127.571 31.9314 124.577 28.8575 124.577 24.2331ZM136.231 24.2866C136.231 21.4799 134.36 19.9296 132.302 19.9296C130.297 19.9296 128.399 21.4265 128.399 24.2331C128.399 27.0398 130.297 28.6436 132.302 28.6436C134.36 28.6436 136.231 27.0933 136.231 24.2866Z" fill="white"/>
<path d="M42.4296 12.3898C42.5644 12.0302 42.9081 11.792 43.2922 11.792H45.0094C45.6526 11.792 46.0978 12.4344 45.872 13.0367L45.181 14.8792C45.0462 15.2388 44.7024 15.477 44.3184 15.477H42.6012C41.958 15.477 41.5128 14.8345 41.7386 14.2323L42.4296 12.3898Z" fill="white"/>
<path d="M21.708 5.15918C25.6454 5.15935 28.9924 7.67956 30.2285 11.1943H27.5859C26.767 11.1943 25.9478 11.3322 25.1289 11.6074C24.3442 11.8827 23.6444 12.2538 23.0303 12.7217C22.416 13.1897 21.9213 13.7409 21.5459 14.374C21.1706 14.9796 20.9825 15.6263 20.9824 16.3145V16.7275C21.0165 16.8652 21.0508 17.003 21.085 17.1406L23.3887 27.3398C23.3887 27.8353 23.0984 28.2758 22.5186 28.6611C21.9385 29.0465 21.3751 29.2392 20.8291 29.2393H16.0176L14.9424 32.543H20.8291C21.6479 32.543 22.4496 32.4051 23.2344 32.1299C24.0533 31.8546 24.7705 31.4826 25.3848 31.0146C25.9988 30.5192 26.4938 29.9688 26.8691 29.3633C27.2445 28.7302 27.4316 28.069 27.4316 27.3809C27.4316 27.2435 27.4149 27.1061 27.3809 26.9688C27.3809 26.8312 27.3641 26.6932 27.3301 26.5557L25.0264 16.3564V16.1904C25.0265 15.8052 25.1627 15.5024 25.4355 15.2822C25.7085 15.0345 26.0505 14.8417 26.46 14.7041C26.9034 14.5666 27.3809 14.4836 27.8926 14.4561C28.4386 14.401 28.9676 14.374 29.4795 14.374C29.9351 14.374 30.3549 14.3851 30.7393 14.4043V26.8672C30.739 31.8551 26.6959 35.8982 21.708 35.8984H10.8984L21.1094 5.15918H21.708ZM6.79492 35.6182C2.88904 34.6227 0.000182727 31.083 0 26.8672V14.1914C0 9.20317 4.04399 5.15918 9.03223 5.15918H16.9121L6.79492 35.6182Z" fill="white"/>
<path d="M18.3658 0.442238C18.483 0.173635 18.7483 0 19.0413 0H21.7211C22.2523 0 22.609 0.544903 22.3966 1.03175L21.4318 3.24274C21.3146 3.51134 21.0493 3.68497 20.7563 3.68497H18.0765C17.5453 3.68497 17.1886 3.14007 17.401 2.65322L18.3658 0.442238Z" fill="white"/>
</svg>
