<svg width="140" height="39" viewBox="0 0 140 39" fill="none" xmlns="http://www.w3.org/2000/svg">
<path d="M41.9443 31.6908C41.7774 31.6908 41.6421 31.5554 41.6421 31.3885V17.1846C41.6421 17.0177 41.7774 16.8823 41.9443 16.8823H45.082C45.2489 16.8823 45.3843 17.0177 45.3843 17.1846V31.3885C45.3843 31.5554 45.2489 31.6908 45.082 31.6908H41.9443Z" fill="#0F0819"/>
<path d="M59.7552 31.6908C59.5882 31.6908 59.4529 31.5554 59.4529 31.3885V23.5114C59.4529 21.1324 58.1431 19.8494 56.1651 19.8494C54.1336 19.8494 52.8238 21.1324 52.8238 23.5114V31.3885C52.8238 31.5554 52.6884 31.6908 52.5215 31.6908H49.3839C49.2169 31.6908 49.0816 31.5554 49.0816 31.3885V17.1846C49.0816 17.0177 49.2169 16.8823 49.3839 16.8823H52.5215C52.6884 16.8823 52.8238 17.0177 52.8238 17.1846V17.8349C52.8238 18.1238 53.2136 18.2661 53.428 18.0724C54.3956 17.1987 55.7444 16.6685 57.2877 16.6685C60.7359 16.6685 63.1951 18.9138 63.1951 23.0035V31.3885C63.1951 31.5554 63.0597 31.6908 62.8928 31.6908H59.7552Z" fill="#0F0819"/>
<path d="M78.2477 27.4674C78.2477 30.0068 76.0291 31.9314 72.4205 31.9314C68.8499 31.9314 66.316 29.9317 65.9816 27.3322C65.9594 27.1598 66.0984 27.013 66.2722 27.013H69.4523C69.6055 27.013 69.732 27.1285 69.77 27.2768C70.024 28.267 71.0165 28.991 72.3938 28.991C73.8639 28.991 74.6658 28.3228 74.6658 27.4674C74.6658 24.8212 66.2993 26.5051 66.2993 21.0789C66.2993 18.6198 68.4912 16.6417 72.1532 16.6417C75.6018 16.6417 77.7372 18.4506 78.0821 21.2095C78.1039 21.3837 77.9645 21.5333 77.7889 21.5333H74.8077C74.6516 21.5333 74.5235 21.4136 74.4904 21.261C74.274 20.2632 73.3971 19.6088 72.0463 19.6088C70.6563 19.6088 69.9346 20.1701 69.9346 21.0255C69.9346 23.7252 78.1407 22.0412 78.2477 27.4674Z" fill="#0F0819"/>
<path d="M87.3462 26.4648C87.4433 26.7275 87.8146 26.7284 87.9129 26.4661L91.4302 17.0785C91.4744 16.9605 91.5872 16.8823 91.7133 16.8823H95.0315C95.2476 16.8823 95.3939 17.1025 95.3102 17.3017L86.3959 38.5089C86.3487 38.6211 86.2389 38.6941 86.1172 38.6941H82.7963C82.5786 38.6941 82.4323 38.4709 82.5191 38.2712L85.4919 31.4338C85.5245 31.3589 85.5254 31.2739 85.4943 31.1983L79.7803 17.2996C79.6986 17.1006 79.8448 16.8823 80.0599 16.8823H83.5949C83.7214 16.8823 83.8346 16.9611 83.8784 17.0798L87.3462 26.4648Z" fill="#0F0819"/>
<path d="M98.0918 27.0932V20.2586C98.0918 20.0916 97.9565 19.9563 97.7895 19.9563H96.6299C96.463 19.9563 96.3276 19.8209 96.3276 19.654V17.1846C96.3276 17.0177 96.463 16.8823 96.6299 16.8823H97.7895C97.9565 16.8823 98.0918 16.747 98.0918 16.58V13.5226C98.0918 13.3556 98.2272 13.2203 98.3941 13.2203H101.558C101.725 13.2203 101.861 13.3556 101.861 13.5226V16.58C101.861 16.747 101.996 16.8823 102.163 16.8823H104.873C105.04 16.8823 105.175 17.0177 105.175 17.1846V19.654C105.175 19.8209 105.04 19.9563 104.873 19.9563H102.163C101.996 19.9563 101.861 20.0916 101.861 20.2586V27.1199C101.861 28.109 102.262 28.5366 103.438 28.5366H104.873C105.04 28.5366 105.175 28.672 105.175 28.8389V31.3885C105.175 31.5554 105.04 31.6908 104.873 31.6908H102.823C99.9897 31.6908 98.0918 30.4879 98.0918 27.0932Z" fill="#0F0819"/>
<path d="M108.169 31.6908C108.002 31.6908 107.867 31.5554 107.867 31.3885V12.2128C107.867 12.0459 108.002 11.9105 108.169 11.9105H111.307C111.474 11.9105 111.609 12.0459 111.609 12.2128V17.8349C111.609 18.1238 112 18.2671 112.216 18.075C113.199 17.1998 114.597 16.6685 116.207 16.6685C119.548 16.6685 121.98 18.9138 121.98 23.0035V31.3885C121.98 31.5554 121.845 31.6908 121.678 31.6908H118.54C118.374 31.6908 118.238 31.5554 118.238 31.3885V23.5114C118.238 21.1324 116.928 19.8494 114.95 19.8494C112.919 19.8494 111.609 21.1324 111.609 23.5114V31.3885C111.609 31.5554 111.474 31.6908 111.307 31.6908H108.169Z" fill="#0F0819"/>
<path d="M124.577 24.2331C124.577 19.6088 127.571 16.6417 131.339 16.6417C133.247 16.6417 134.673 17.3634 135.618 18.2832C135.829 18.4881 136.231 18.3478 136.231 18.054V17.1846C136.231 17.0177 136.366 16.8823 136.533 16.8823H139.698C139.865 16.8823 140 17.0177 140 17.1846V31.3885C140 31.5554 139.865 31.6908 139.698 31.6908H136.533C136.366 31.6908 136.231 31.5554 136.231 31.3885V30.4989C136.231 30.2021 135.817 30.061 135.606 30.2694C134.648 31.2133 133.194 31.9314 131.313 31.9314C127.571 31.9314 124.577 28.8574 124.577 24.2331ZM136.231 24.2865C136.231 21.4799 134.36 19.9295 132.302 19.9295C130.297 19.9295 128.399 21.4264 128.399 24.2331C128.399 27.0397 130.297 28.6436 132.302 28.6436C134.36 28.6436 136.231 27.0932 136.231 24.2865Z" fill="#0F0819"/>
<path d="M42.4296 12.3897C42.5644 12.0301 42.9081 11.7919 43.2922 11.7919H45.0094C45.6526 11.7919 46.0978 12.4344 45.8719 13.0366L45.181 14.8791C45.0462 15.2387 44.7024 15.4769 44.3184 15.4769H42.6012C41.958 15.4769 41.5128 14.8345 41.7386 14.2322L42.4296 12.3897Z" fill="#0F0819"/>
<path d="M21.708 5.15897C25.6454 5.15914 28.9924 7.67935 30.2285 11.1941H27.5859C26.767 11.1941 25.9478 11.332 25.1289 11.6072C24.3442 11.8824 23.6444 12.2536 23.0303 12.7215C22.416 13.1895 21.9213 13.7407 21.5459 14.3738C21.1706 14.9794 20.9825 15.6261 20.9824 16.3142V16.7273C21.0165 16.865 21.0508 17.0028 21.085 17.1404L23.3887 27.3396C23.3887 27.835 23.0984 28.2756 22.5186 28.6609C21.9385 29.0463 21.3751 29.239 20.8291 29.239H16.0176L14.9424 32.5428H20.8291C21.6479 32.5427 22.4496 32.4049 23.2344 32.1297C24.0533 31.8544 24.7705 31.4824 25.3848 31.0144C25.9988 30.519 26.4938 29.9686 26.8691 29.3631C27.2445 28.7299 27.4316 28.0688 27.4316 27.3806C27.4316 27.2433 27.4149 27.1059 27.3809 26.9685C27.3809 26.831 27.3641 26.693 27.3301 26.5555L25.0264 16.3562V16.1902C25.0265 15.805 25.1627 15.5022 25.4355 15.282C25.7085 15.0343 26.0505 14.8415 26.46 14.7039C26.9034 14.5663 27.3809 14.4834 27.8926 14.4558C28.4386 14.4008 28.9676 14.3738 29.4795 14.3738C29.9351 14.3738 30.3549 14.3849 30.7393 14.4041V26.867C30.739 31.8549 26.6959 35.898 21.708 35.8982H10.8984L21.1094 5.15897H21.708ZM6.79492 35.618C2.88904 34.6225 0.000182727 31.0828 0 26.867V14.1912C0 9.20296 4.04399 5.15897 9.03223 5.15897H16.9121L6.79492 35.618Z" fill="#6A36B3"/>
<path d="M18.3658 0.442269C18.483 0.173666 18.7483 3.05176e-05 19.0413 3.05176e-05H21.7211C22.2523 3.05176e-05 22.609 0.544933 22.3966 1.03178L21.4318 3.24277C21.3146 3.51137 21.0493 3.68501 20.7563 3.68501H18.0765C17.5453 3.68501 17.1886 3.1401 17.401 2.65325L18.3658 0.442269Z" fill="#6A36B3"/>
</svg>
