<svg width="20" height="21" viewBox="0 0 20 21" fill="none" xmlns="http://www.w3.org/2000/svg">
<path d="M12.9917 11.0277V14.4193C12.9917 14.7193 12.9584 15.0027 12.8834 15.261C12.5751 16.486 11.5584 17.2527 10.1584 17.2527H7.89175L5.37508 18.9277C5.00008 19.186 4.50008 18.911 4.50008 18.461V17.2527C3.65008 17.2527 2.94175 16.9693 2.45008 16.4777C1.95008 15.9777 1.66675 15.2693 1.66675 14.4193V11.0277C1.66675 9.44434 2.65008 8.35267 4.16675 8.211C4.27508 8.20267 4.38341 8.19434 4.50008 8.19434H10.1584C11.8584 8.19434 12.9917 9.32767 12.9917 11.0277Z" fill="white"/>
<path d="M14.7917 13.6947C15.8501 13.6947 16.7417 13.3447 17.3584 12.7197C17.9834 12.103 18.3334 11.2113 18.3334 10.153V5.90299C18.3334 3.94466 16.7501 2.36133 14.7917 2.36133H7.70842C5.75008 2.36133 4.16675 3.94466 4.16675 5.90299V6.52799C4.16675 6.76133 4.35008 6.94466 4.58341 6.94466H10.1584C12.4167 6.94466 14.2417 8.76966 14.2417 11.028V13.278C14.2417 13.5113 14.4251 13.6947 14.6584 13.6947H14.7917Z" fill="white"/>
</svg>
