<svg width="20" height="21" viewBox="0 0 20 21" fill="none" xmlns="http://www.w3.org/2000/svg">
<path d="M18.3333 5.90299V10.153C18.3333 11.2113 17.9833 12.103 17.3583 12.7197C16.7417 13.3447 15.85 13.6946 14.7917 13.6946V15.203C14.7917 15.7696 14.1583 16.1113 13.6917 15.7947L12.8833 15.2613C12.9583 15.003 12.9917 14.7196 12.9917 14.4196V11.028C12.9917 9.32802 11.8583 8.19466 10.1583 8.19466H4.49999C4.38333 8.19466 4.275 8.20301 4.16666 8.21134V5.90299C4.16666 3.77799 5.58333 2.36133 7.70833 2.36133H14.7917C16.9167 2.36133 18.3333 3.77799 18.3333 5.90299Z" stroke="white" stroke-miterlimit="10" stroke-linecap="round" stroke-linejoin="round"/>
<path d="M12.9917 11.0277V14.4193C12.9917 14.7193 12.9583 15.0027 12.8833 15.261C12.575 16.486 11.5583 17.2527 10.1583 17.2527H7.89166L5.37499 18.9277C4.99999 19.186 4.49999 18.911 4.49999 18.461V17.2527C3.64999 17.2527 2.94167 16.9693 2.45 16.4777C1.95 15.9777 1.66666 15.2693 1.66666 14.4193V11.0277C1.66666 9.44436 2.65 8.35269 4.16666 8.21102C4.275 8.20269 4.38333 8.19434 4.49999 8.19434H10.1583C11.8583 8.19434 12.9917 9.32769 12.9917 11.0277Z" stroke="white" stroke-miterlimit="10" stroke-linecap="round" stroke-linejoin="round"/>
</svg>
