<svg width="20" height="21" viewBox="0 0 20 21" fill="none" xmlns="http://www.w3.org/2000/svg">
<path d="M14.6333 2.36133H5.34166C3.31666 2.36133 1.66666 4.01133 1.66666 6.03633V11.453V11.6197C1.66666 13.653 3.31666 15.2947 5.34166 15.2947H8.54166C9 15.2947 9.375 15.6697 9.375 16.128V16.9363C9.375 17.3947 9 17.7697 8.54166 17.7697H6.525C6.18333 17.7697 5.9 18.053 5.9 18.3947C5.9 18.7363 6.175 19.028 6.525 19.028H13.4833C13.825 19.028 14.1083 18.7447 14.1083 18.403C14.1083 18.0613 13.825 17.778 13.4833 17.778H11.4667C11.0083 17.778 10.6333 17.403 10.6333 16.9447V16.1363C10.6333 15.678 11.0083 15.303 11.4667 15.303H14.6417C16.675 15.303 18.3167 13.653 18.3167 11.628V11.4613V6.04466C18.3083 4.01133 16.6583 2.36133 14.6333 2.36133Z" fill="white"/>
</svg>
