<svg width="20" height="21" viewBox="0 0 20 21" fill="none" xmlns="http://www.w3.org/2000/svg">
<path d="M11.6666 4.66667C11.6666 3.75 10.9166 3 9.99996 3C9.08329 3 8.33329 3.75 8.33329 4.66667C8.33329 5.58333 9.08329 6.33333 9.99996 6.33333C10.9166 6.33333 11.6666 5.58333 11.6666 4.66667Z" stroke="#3E1F69" stroke-width="1.5"/>
<path d="M11.6666 16.3327C11.6666 15.416 10.9166 14.666 9.99996 14.666C9.08329 14.666 8.33329 15.416 8.33329 16.3327C8.33329 17.2493 9.08329 17.9993 9.99996 17.9993C10.9166 17.9993 11.6666 17.2493 11.6666 16.3327Z" stroke="#3E1F69" stroke-width="1.5"/>
<path d="M11.6666 10.5007C11.6666 9.58398 10.9166 8.83398 9.99996 8.83398C9.08329 8.83398 8.33329 9.58398 8.33329 10.5007C8.33329 11.4173 9.08329 12.1673 9.99996 12.1673C10.9166 12.1673 11.6666 11.4173 11.6666 10.5007Z" stroke="#3E1F69" stroke-width="1.5"/>
</svg>
