<svg width="20" height="21" viewBox="0 0 20 21" fill="none" xmlns="http://www.w3.org/2000/svg">
<path d="M10.0164 2.92578C7.25804 2.92578 5.01637 5.16745 5.01637 7.92578V10.3341C5.01637 10.8424 4.79971 11.6174 4.54137 12.0508L3.58304 13.6424C2.99137 14.6258 3.39971 15.7174 4.48304 16.0841C8.07471 17.2841 11.9497 17.2841 15.5414 16.0841C16.5497 15.7508 16.9914 14.5591 16.4414 13.6424L15.483 12.0508C15.233 11.6174 15.0164 10.8424 15.0164 10.3341V7.92578C15.0164 5.17578 12.7664 2.92578 10.0164 2.92578Z" stroke="#3E1F69" stroke-width="1.5" stroke-miterlimit="10" stroke-linecap="round"/>
<path d="M11.5583 3.16719C11.3 3.09219 11.0333 3.03385 10.7583 3.00052C9.95831 2.90052 9.19164 2.95885 8.47498 3.16719C8.71664 2.55052 9.31664 2.11719 10.0166 2.11719C10.7166 2.11719 11.3166 2.55052 11.5583 3.16719Z" stroke="#3E1F69" stroke-width="1.5" stroke-miterlimit="10" stroke-linecap="round" stroke-linejoin="round"/>
<path d="M12.5162 16.3828C12.5162 17.7578 11.3912 18.8828 10.0162 18.8828C9.3329 18.8828 8.69957 18.5995 8.24957 18.1495C7.79957 17.6995 7.51624 17.0661 7.51624 16.3828" stroke="#3E1F69" stroke-width="1.5" stroke-miterlimit="10"/>
</svg>
