<svg width="20" height="21" viewBox="0 0 20 21" fill="none" xmlns="http://www.w3.org/2000/svg">
<path d="M14.6084 7.16966C14.55 7.16133 14.4917 7.16133 14.4334 7.16966C13.1417 7.128 12.1167 6.06966 12.1167 4.76966C12.1167 3.44466 13.1917 2.36133 14.525 2.36133C15.85 2.36133 16.9334 3.43633 16.9334 4.76966C16.925 6.06966 15.9 7.128 14.6084 7.16966Z" fill="white"/>
<path d="M17.3247 12.9447C16.3913 13.5697 15.083 13.803 13.8747 13.6447C14.1913 12.9613 14.358 12.203 14.3663 11.403C14.3663 10.5697 14.183 9.77801 13.833 9.08634C15.0663 8.91967 16.3747 9.15301 17.3163 9.77801C18.633 10.6447 18.633 12.0697 17.3247 12.9447Z" fill="white"/>
<path d="M5.36672 7.16966C5.42505 7.16133 5.48338 7.16133 5.54172 7.16966C6.83338 7.128 7.85838 6.06966 7.85838 4.76966C7.85838 3.43633 6.78338 2.36133 5.45005 2.36133C4.12505 2.36133 3.05005 3.43633 3.05005 4.76966C3.05005 6.06966 4.07505 7.128 5.36672 7.16966Z" fill="white"/>
<path d="M5.45831 11.4022C5.45831 12.2105 5.63331 12.9772 5.94998 13.6689C4.77498 13.7939 3.54998 13.5439 2.64998 12.9522C1.33331 12.0772 1.33331 10.6522 2.64998 9.77719C3.54164 9.17719 4.79998 8.93552 5.98331 9.06885C5.64164 9.76885 5.45831 10.5605 5.45831 11.4022Z" fill="white"/>
<path d="M10.1 13.9193C10.0333 13.911 9.95833 13.911 9.88333 13.9193C8.35 13.8693 7.125 12.611 7.125 11.061C7.13333 9.47767 8.40833 8.19434 10 8.19434C11.5833 8.19434 12.8667 9.47767 12.8667 11.061C12.8583 12.611 11.6417 13.8693 10.1 13.9193Z" fill="white"/>
<path d="M10.0065 16.1758C10.7625 16.1758 11.4484 16.3707 11.9108 16.6816L11.9186 16.6865C12.2823 16.9275 12.3024 17.127 12.3024 17.1709C12.3023 17.2167 12.28 17.419 11.9137 17.6641C11.4456 17.977 10.7554 18.1719 9.99963 18.1719C9.33847 18.1718 8.72793 18.0223 8.27209 17.7754L8.08167 17.6611L7.96057 17.5723C7.71317 17.3722 7.69788 17.2151 7.69788 17.1768C7.6979 17.1316 7.71937 16.9302 8.08362 16.6855C8.55736 16.3706 9.25098 16.1758 10.0065 16.1758Z" fill="white" stroke="white" stroke-width="2.5"/>
</svg>
