<svg width="20" height="21" viewBox="0 0 20 21" fill="none" xmlns="http://www.w3.org/2000/svg">
<path d="M15 6.66133C14.95 6.653 14.8917 6.653 14.8417 6.66133C13.6917 6.61966 12.775 5.678 12.775 4.51133C12.775 3.31966 13.7333 2.36133 14.925 2.36133C16.1167 2.36133 17.075 3.328 17.075 4.51133C17.0667 5.678 16.15 6.61966 15 6.66133Z" stroke="white" stroke-linecap="round" stroke-linejoin="round"/>
<path d="M14.142 12.7281C15.2836 12.9198 16.542 12.7198 17.4253 12.1281C18.6003 11.3448 18.6003 10.0615 17.4253 9.27813C16.5336 8.68646 15.2586 8.48646 14.117 8.68646" stroke="white" stroke-linecap="round" stroke-linejoin="round"/>
<path d="M4.97535 6.66133C5.02535 6.653 5.08369 6.653 5.13369 6.66133C6.28369 6.61966 7.20035 5.678 7.20035 4.51133C7.20035 3.31966 6.24202 2.36133 5.05035 2.36133C3.85869 2.36133 2.90035 3.328 2.90035 4.51133C2.90869 5.678 3.82535 6.61966 4.97535 6.66133Z" stroke="white" stroke-linecap="round" stroke-linejoin="round"/>
<path d="M5.83369 12.7281C4.69202 12.9198 3.43369 12.7198 2.55036 12.1281C1.37536 11.3448 1.37536 10.0615 2.55036 9.27813C3.44202 8.68646 4.71702 8.48646 5.85869 8.68646" stroke="white" stroke-linecap="round" stroke-linejoin="round"/>
<path d="M10.0001 12.8859C9.95006 12.8776 9.89173 12.8776 9.84173 12.8859C8.69173 12.8443 7.77506 11.9026 7.77506 10.7359C7.77506 9.54427 8.73339 8.58594 9.92506 8.58594C11.1167 8.58594 12.0751 9.55261 12.0751 10.7359C12.0667 11.9026 11.1501 12.8526 10.0001 12.8859Z" stroke="white" stroke-linecap="round" stroke-linejoin="round"/>
<path d="M7.57477 15.5111C6.39977 16.2945 6.39977 17.5778 7.57477 18.3611C8.9081 19.2528 11.0914 19.2528 12.4248 18.3611C13.5998 17.5778 13.5998 16.2945 12.4248 15.5111C11.0998 14.6278 8.9081 14.6278 7.57477 15.5111Z" stroke="white" stroke-linecap="round" stroke-linejoin="round"/>
</svg>
