<svg width="20" height="21" viewBox="0 0 20 21" fill="none" xmlns="http://www.w3.org/2000/svg">
<path d="M10 19.028C14.6024 19.028 18.3333 15.297 18.3333 10.6947C18.3333 6.09229 14.6024 2.36133 10 2.36133C5.39762 2.36133 1.66666 6.09229 1.66666 10.6947C1.66666 15.297 5.39762 19.028 10 19.028Z" stroke="white" stroke-linecap="round" stroke-linejoin="round"/>
<path d="M6.675 12.7863C6.825 13.0363 7.00833 13.2696 7.21666 13.478C8.75 15.0113 11.2417 15.0113 12.7833 13.478C13.4083 12.853 13.7667 12.0613 13.8833 11.2529" stroke="white" stroke-linecap="round" stroke-linejoin="round"/>
<path d="M6.11666 10.1368C6.23333 9.32009 6.59167 8.53672 7.21667 7.91172C8.75 6.37839 11.2417 6.37839 12.7833 7.91172C13 8.12839 13.175 8.36173 13.325 8.6034" stroke="white" stroke-linecap="round" stroke-linejoin="round"/>
<path d="M6.51705 15.0111V12.7861H8.74204" stroke="white" stroke-linecap="round" stroke-linejoin="round"/>
<path d="M13.4833 6.37793V8.60292H11.2583" stroke="white" stroke-linecap="round" stroke-linejoin="round"/>
</svg>
