<svg width="20" height="21" viewBox="0 0 20 21" fill="none" xmlns="http://www.w3.org/2000/svg">
<path d="M5 11.5273C2.7 11.5273 0.833336 13.3857 0.833336 15.694C0.833336 18.0023 2.7 19.8607 5 19.8607C7.3 19.8607 9.16667 17.994 9.16667 15.694C9.16667 13.394 7.30834 11.5273 5 11.5273ZM3.3 13.994H5C5.31667 13.994 5.56667 14.2523 5.56667 14.5607C5.56667 14.869 5.31667 15.1273 5 15.1273H3.3C2.98334 15.1273 2.73334 14.869 2.73334 14.5607C2.73334 14.2523 2.98334 13.994 3.3 13.994ZM6.7 17.394H3.3C2.98334 17.394 2.73334 17.1357 2.73334 16.8273C2.73334 16.519 2.99167 16.2607 3.3 16.2607H6.70834C7.025 16.2607 7.275 16.519 7.275 16.8273C7.275 17.1357 7.01667 17.394 6.7 17.394Z" fill="white"/>
<path d="M14.1667 3.19434H5.83333C3.33333 3.19434 1.66666 4.44434 1.66666 7.361V9.97767C1.66666 10.586 2.29166 10.9693 2.85 10.7277C3.76666 10.3277 4.80833 10.1777 5.9 10.3527C8.08333 10.711 9.86666 12.436 10.3083 14.6027C10.4333 15.236 10.45 15.8527 10.3667 16.4443C10.3 16.936 10.7 17.3693 11.1917 17.3693H14.1667C16.6667 17.3693 18.3333 16.1193 18.3333 13.2027V7.361C18.3333 4.44434 16.6667 3.19434 14.1667 3.19434ZM14.5583 7.85267L11.95 9.936C11.4 10.3777 10.7 10.5943 10 10.5943C9.3 10.5943 8.59166 10.3777 8.05 9.936L5.44166 7.85267C5.175 7.636 5.13333 7.236 5.34166 6.96934C5.55833 6.70267 5.95 6.65267 6.21666 6.86934L8.825 8.95267C9.45833 9.461 10.5333 9.461 11.1667 8.95267L13.775 6.86934C14.0417 6.65267 14.4417 6.69434 14.65 6.96934C14.8667 7.236 14.825 7.636 14.5583 7.85267Z" fill="white"/>
</svg>
