<svg width="20" height="21" viewBox="0 0 20 21" fill="none" xmlns="http://www.w3.org/2000/svg">
<path d="M18.3333 9.24935V13.416C18.3333 16.3327 16.6666 17.5827 14.1666 17.5827H5.83329C3.33329 17.5827 1.66663 16.3327 1.66663 13.416V7.58268C1.66663 4.66602 3.33329 3.41602 5.83329 3.41602H11.6666" stroke="#3E1F69" stroke-width="1.5" stroke-miterlimit="10" stroke-linecap="round" stroke-linejoin="round"/>
<path d="M5.83337 8L8.44171 10.0833C9.30004 10.7667 10.7084 10.7667 11.5667 10.0833L12.55 9.3" stroke="#3E1F69" stroke-width="1.5" stroke-miterlimit="10" stroke-linecap="round" stroke-linejoin="round"/>
<path d="M16.25 7.16667C17.4006 7.16667 18.3333 6.23393 18.3333 5.08333C18.3333 3.93274 17.4006 3 16.25 3C15.0994 3 14.1666 3.93274 14.1666 5.08333C14.1666 6.23393 15.0994 7.16667 16.25 7.16667Z" stroke="#3E1F69" stroke-width="1.5" stroke-miterlimit="10" stroke-linecap="round" stroke-linejoin="round"/>
</svg>
