<svg width="21" height="21" viewBox="0 0 21 21" fill="none" xmlns="http://www.w3.org/2000/svg">
<path d="M19.3 10.9023C19.3 10.2523 19.2417 9.62734 19.1333 9.02734H10.5V12.5732H15.4333C15.2208 13.719 14.575 14.6898 13.6042 15.3398V17.6398H16.5667C18.3 16.044 19.3 13.694 19.3 10.9023Z" fill="#4285F4"/>
<path d="M10.5 19.8607C12.975 19.8607 15.05 19.0398 16.5667 17.6398L13.6042 15.3398C12.7833 15.8898 11.7333 16.2148 10.5 16.2148C8.11252 16.2148 6.09168 14.6023 5.37085 12.4357H2.30835V14.8107C3.81668 17.8065 6.91668 19.8607 10.5 19.8607Z" fill="#34A853"/>
<path d="M5.37087 12.4357C5.18754 11.8857 5.08337 11.2982 5.08337 10.6941C5.08337 10.0899 5.18754 9.50239 5.37087 8.95239V6.57739H2.30837C1.66671 7.85477 1.33281 9.26457 1.33337 10.6941C1.33337 12.1732 1.68754 13.5732 2.30837 14.8107L5.37087 12.4357Z" fill="#FBBC05"/>
<path d="M10.5 5.17318C11.8458 5.17318 13.0542 5.63568 14.0042 6.54401L16.6333 3.91484C15.0458 2.43568 12.9708 1.52734 10.5 1.52734C6.91668 1.52734 3.81668 3.58151 2.30835 6.57734L5.37085 8.95234C6.09168 6.78568 8.11252 5.17318 10.5 5.17318Z" fill="#EA4335"/>
</svg>
