<svg width="20" height="21" viewBox="0 0 20 21" fill="none" xmlns="http://www.w3.org/2000/svg">
<path d="M13.4915 2.36133H6.50817C3.47484 2.36133 1.6665 4.16966 1.6665 7.20299V14.1863C1.6665 17.2197 3.47484 19.028 6.50817 19.028H13.4915C16.5248 19.028 18.3332 17.2197 18.3332 14.1863V7.20299C18.3332 4.16966 16.5248 2.36133 13.4915 2.36133ZM8.30817 13.1113L6.43317 14.9863C6.30817 15.1113 6.14984 15.1697 5.9915 15.1697C5.83317 15.1697 5.6665 15.1113 5.54984 14.9863L4.92484 14.3613C4.67484 14.1197 4.67484 13.7197 4.92484 13.478C5.1665 13.2363 5.55817 13.2363 5.80817 13.478L5.9915 13.6613L7.42484 12.228C7.6665 11.9863 8.05817 11.9863 8.30817 12.228C8.54984 12.4697 8.54984 12.8697 8.30817 13.1113ZM8.30817 7.278L6.43317 9.15299C6.30817 9.27799 6.14984 9.33633 5.9915 9.33633C5.83317 9.33633 5.6665 9.27799 5.54984 9.15299L4.92484 8.52799C4.67484 8.28633 4.67484 7.88633 4.92484 7.64466C5.1665 7.403 5.55817 7.403 5.80817 7.64466L5.9915 7.828L7.42484 6.39466C7.6665 6.153 8.05817 6.153 8.30817 6.39466C8.54984 6.63633 8.54984 7.03633 8.30817 7.278ZM14.6332 14.5447H10.2582C9.9165 14.5447 9.63317 14.2613 9.63317 13.9197C9.63317 13.578 9.9165 13.2947 10.2582 13.2947H14.6332C14.9832 13.2947 15.2582 13.578 15.2582 13.9197C15.2582 14.2613 14.9832 14.5447 14.6332 14.5447ZM14.6332 8.71133H10.2582C9.9165 8.71133 9.63317 8.428 9.63317 8.08633C9.63317 7.74466 9.9165 7.46133 10.2582 7.46133H14.6332C14.9832 7.46133 15.2582 7.74466 15.2582 8.08633C15.2582 8.428 14.9832 8.71133 14.6332 8.71133Z" fill="white"/>
</svg>
