<svg width="20" height="21" viewBox="0 0 20 21" fill="none" xmlns="http://www.w3.org/2000/svg">
<path d="M15.117 18.711C14.3836 18.9276 13.517 19.0276 12.5003 19.0276H7.50029C6.48363 19.0276 5.61696 18.9276 4.88363 18.711C5.06696 16.5443 7.29196 14.8359 10.0003 14.8359C12.7086 14.8359 14.9336 16.5443 15.117 18.711Z" stroke="white" stroke-linecap="round" stroke-linejoin="round"/>
<path d="M12.5 2.36133H7.5C3.33333 2.36133 1.66666 4.02799 1.66666 8.19466V13.1947C1.66666 16.3447 2.61666 18.0697 4.88333 18.7113C5.06666 16.5447 7.29166 14.8363 10 14.8363C12.7083 14.8363 14.9333 16.5447 15.1167 18.7113C17.3833 18.0697 18.3333 16.3447 18.3333 13.1947V8.19466C18.3333 4.02799 16.6667 2.36133 12.5 2.36133ZM10 12.503C8.35 12.503 7.01666 11.1613 7.01666 9.51134C7.01666 7.86134 8.35 6.52799 10 6.52799C11.65 6.52799 12.9833 7.86134 12.9833 9.51134C12.9833 11.1613 11.65 12.503 10 12.503Z" stroke="white" stroke-linecap="round" stroke-linejoin="round"/>
<path d="M12.9833 9.51069C12.9833 11.1607 11.65 12.5023 10 12.5023C8.35 12.5023 7.01666 11.1607 7.01666 9.51069C7.01666 7.86069 8.35 6.52734 10 6.52734C11.65 6.52734 12.9833 7.86069 12.9833 9.51069Z" stroke="white" stroke-linecap="round" stroke-linejoin="round"/>
</svg>
