<svg width="20" height="21" viewBox="0 0 20 21" fill="none" xmlns="http://www.w3.org/2000/svg">
<path d="M13.4917 2.35938H6.50833C3.475 2.35938 1.66666 4.16771 1.66666 7.20104V14.1844C1.66666 16.526 2.74166 18.1344 4.63333 18.7427C5.18333 18.9344 5.81666 19.026 6.50833 19.026H13.4917C14.1833 19.026 14.8167 18.9344 15.3667 18.7427C17.2583 18.1344 18.3333 16.526 18.3333 14.1844V7.20104C18.3333 4.16771 16.525 2.35938 13.4917 2.35938ZM17.0833 14.1844C17.0833 15.9677 16.3833 17.0927 14.975 17.5594C14.1667 15.9677 12.25 14.8344 10 14.8344C7.75 14.8344 5.84166 15.9594 5.025 17.5594H5.01666C3.625 17.1094 2.91666 15.976 2.91666 14.1927V7.20104C2.91666 4.85104 4.15833 3.60938 6.50833 3.60938H13.4917C15.8417 3.60938 17.0833 4.85104 17.0833 7.20104V14.1844Z" fill="white"/>
<path d="M10 7.35938C8.35 7.35938 7.01666 8.69271 7.01666 10.3427C7.01666 11.9927 8.35 13.3344 10 13.3344C11.65 13.3344 12.9833 11.9927 12.9833 10.3427C12.9833 8.69271 11.65 7.35938 10 7.35938Z" fill="white"/>
</svg>
